<mxfile host="app.diagrams.net" agent="Mozilla/5.0 (Macintosh; Intel Mac OS X 10_15_7) AppleWebKit/537.36 (KHTML, like Gecko) Chrome/132.0.0.0 Safari/537.36" version="26.0.7">
  <diagram name="Page-1" id="s2O9_kATyEIOsnElh8kl">
    <mxGraphModel dx="1189" dy="1930" grid="1" gridSize="10" guides="1" tooltips="1" connect="1" arrows="1" fold="1" page="1" pageScale="1" pageWidth="827" pageHeight="1169" math="0" shadow="0">
      <root>
        <mxCell id="0" />
        <mxCell id="1" parent="0" />
        <mxCell id="anAZUJU6mTMkVZteGUWq-3" value="" style="rounded=1;whiteSpace=wrap;html=1;dashed=1;dashPattern=8 8;strokeColor=light-dark(#059be6, #ededed);" vertex="1" parent="1">
          <mxGeometry x="190" y="-540" width="400" height="190" as="geometry" />
        </mxCell>
        <mxCell id="anAZUJU6mTMkVZteGUWq-2" value="PostgreSQL CDC Source V2 &#xa;(Debezium) Connector" style="shape=image;verticalLabelPosition=bottom;verticalAlign=top;imageAspect=0;aspect=fixed;image=data:image/svg+xml,PHN2ZyB4bWxucz0iaHR0cDovL3d3dy53My5vcmcvMjAwMC9zdmciIGZpbGw9Im5vbmUiIHZpZXdCb3g9IjAgMCA0OCA0OCIgaGVpZ2h0PSI0OCIgd2lkdGg9IjQ4Ij4mI3hhOzxwYXRoIGZpbGw9IiMwNDA1MzEiIGQ9Ik0yMy4yNzczIDQxLjI4NjFDMjMuMDA0MyA0MS43Mjk4IDIyLjUyMDcgNDIgMjEuOTk5OCA0MkgxMS40OTk4QzEwLjk3NyA0MiAxMC40OTIgNDEuNzI3OCAxMC4yMTk2IDQxLjI4MTdMMC43MTk1NjggMjUuNzIyOUMwLjQyODI4OSAyNS4yNDU4IDAuNDI2NDE0IDI0LjY0NjQgMC43MTQ2OTkgMjQuMTY3NUwxMS4yMTQ3IDYuNzI2MzVDMTEuNDg2IDYuMjc1NjIgMTEuOTczNyA2IDEyLjQ5OTggNkgyMC40OTk4QzIxLjMyODIgNiAyMS45OTk4IDYuNjcxNTcgMjEuOTk5OCA3LjVDMjEuOTk5OCA4LjMyODQzIDIxLjMyODIgOSAyMC40OTk4IDlIMTMuMzQ3NkwzLjc1Mzk1IDI0LjkzNTdMMTIuMzQxNCAzOUgyMS4xNjE2TDI0LjcyMjMgMzMuMjEzOUMyNS4xNTY1IDMyLjUwODMgMjYuMDgwNCAzMi4yODgzIDI2Ljc4NTkgMzIuNzIyNUMyNy40OTE1IDMzLjE1NjcgMjcuNzExNSAzNC4wODA2IDI3LjI3NzMgMzQuNzg2MUwyMy4yNzczIDQxLjI4NjFaIiBjbGlwLXJ1bGU9ImV2ZW5vZGQiIGZpbGwtcnVsZT0iZXZlbm9kZCIvPiYjeGE7PHBhdGggZmlsbD0iIzA0MDUzMSIgZD0iTTI0LjcyMjcgNi43MTM4NUMyNC45OTU3IDYuMjcwMjMgMjUuNDc5MyA2IDI2LjAwMDIgNkgzNi41MDAyQzM3LjAyMyA2IDM3LjUwOCA2LjI3MjE1IDM3Ljc4MDQgNi43MTgzMUw0Ny4yODA0IDIyLjI3NzFDNDcuNTcxNyAyMi43NTQyIDQ3LjU3MzYgMjMuMzUzNiA0Ny4yODUzIDIzLjgzMjVMMzYuNzg1MyA0MS4yNzM3QzM2LjUxNCA0MS43MjQ0IDM2LjAyNjMgNDIgMzUuNTAwMiA0MkgyNy41MDAyQzI2LjY3MTggNDIgMjYuMDAwMiA0MS4zMjg0IDI2LjAwMDIgNDAuNUMyNi4wMDAyIDM5LjY3MTYgMjYuNjcxOCAzOSAyNy41MDAyIDM5SDM0LjY1MjRMNDQuMjQ2MSAyMy4wNjQzTDM1LjY1ODYgOUgyNi44Mzg0TDIzLjI3NzcgMTQuNzg2MUMyMi44NDM1IDE1LjQ5MTcgMjEuOTE5NiAxNS43MTE3IDIxLjIxNDEgMTUuMjc3NUMyMC41MDg1IDE0Ljg0MzMgMjAuMjg4NSAxMy45MTk0IDIwLjcyMjcgMTMuMjEzOUwyNC43MjI3IDYuNzEzODVaIiBjbGlwLXJ1bGU9ImV2ZW5vZGQiIGZpbGwtcnVsZT0iZXZlbm9kZCIvPiYjeGE7PHJlY3QgZmlsbD0idXJsKCNwYWludDBfbGluZWFyKSIgdHJhbnNmb3JtPSJyb3RhdGUoOTAgMjggMjApIiBoZWlnaHQ9IjgiIHdpZHRoPSI4IiB5PSIyMCIgeD0iMjgiLz4mI3hhOzxkZWZzPiYjeGE7PGxpbmVhckdyYWRpZW50IGdyYWRpZW50VW5pdHM9InVzZXJTcGFjZU9uVXNlIiB5Mj0iMjgiIHgyPSIzMiIgeTE9IjIwIiB4MT0iMzIiIGlkPSJwYWludDBfbGluZWFyIj4mI3hhOzxzdG9wIHN0b3AtY29sb3I9IiMzOENDRUQiLz4mI3hhOzxzdG9wIHN0b3Atb3BhY2l0eT0iMC40IiBzdG9wLWNvbG9yPSIjMzhDQ0VEIiBvZmZzZXQ9IjEiLz4mI3hhOzwvbGluZWFyR3JhZGllbnQ+JiN4YTs8L2RlZnM+JiN4YTs8L3N2Zz4=;" vertex="1" parent="1">
          <mxGeometry x="256" y="-484" width="48" height="48" as="geometry" />
        </mxCell>
        <mxCell id="anAZUJU6mTMkVZteGUWq-10" style="edgeStyle=orthogonalEdgeStyle;rounded=0;orthogonalLoop=1;jettySize=auto;html=1;entryX=0;entryY=0.5;entryDx=0;entryDy=0;" edge="1" parent="1" source="anAZUJU6mTMkVZteGUWq-2" target="anAZUJU6mTMkVZteGUWq-4">
          <mxGeometry relative="1" as="geometry" />
        </mxCell>
        <mxCell id="anAZUJU6mTMkVZteGUWq-11" style="edgeStyle=orthogonalEdgeStyle;rounded=0;orthogonalLoop=1;jettySize=auto;html=1;entryX=0;entryY=0.5;entryDx=0;entryDy=0;" edge="1" parent="1" source="anAZUJU6mTMkVZteGUWq-4" target="anAZUJU6mTMkVZteGUWq-5">
          <mxGeometry relative="1" as="geometry" />
        </mxCell>
        <mxCell id="anAZUJU6mTMkVZteGUWq-4" value="Kafka" style="shape=image;verticalLabelPosition=bottom;verticalAlign=top;imageAspect=0;aspect=fixed;image=data:image/svg+xml,PHN2ZyB4bWxucz0iaHR0cDovL3d3dy53My5vcmcvMjAwMC9zdmciIGZpbGw9Im5vbmUiIHZpZXdCb3g9IjAgMCA2MCA2MCIgaGVpZ2h0PSI2MCIgd2lkdGg9IjYwIj4mI3hhOzxwYXRoIGZpbGw9InVybCgjcGFpbnQwX2xpbmVhcl83NDNfMjY1NikiIGQ9Ik0zMC43MDYyIDEzLjM5NjVDMzIuNTI2NCAxMy4zOTY1IDM0LjAwMTkgMTEuOTYxMSAzNC4wMDE5IDEwLjE5MDVDMzQuMDAxOSA4LjQxOTgxIDMyLjUyNjQgNi45ODQ0MSAzMC43MDYyIDYuOTg0NDFDMjguODg2MSA2Ljk4NDQxIDI3LjQxMDUgOC40MTk4MSAyNy40MTA1IDEwLjE5MDVDMjcuNDEwNSAxMS45NjExIDI4Ljg4NjEgMTMuMzk2NSAzMC43MDYyIDEzLjM5NjVaTTM3LjA2OTcgMTAuMTkwNUMzNy4wNjk3IDEzLjA5ODcgMzUuMDA4MiAxNS41Mzg1IDMyLjIyOTMgMTYuMjAyNUMzMi4yMzY1IDE2LjI2MSAzMi4yNDAyIDE2LjMyMDYgMzIuMjQwMiAxNi4zODFWMjEuMjAzNUMzNC42NDEyIDIxLjU5NjggMzYuNzI1NSAyMi44OTc5IDM4LjEwNzEgMjQuNzMxNEw0My43Nzg5IDIxLjczMzRDNDMuNTI4OCAyMC43NDk3IDQzLjUyNCAxOS42OTI0IDQzLjgxMzcgMTguNjQ0NUM0NC43MjY2IDE1LjM0MyA0OC4yMTc5IDEzLjM4NjUgNTEuNjExNyAxNC4yNzQ1QzU1LjAwNTYgMTUuMTYyNiA1Ny4wMTY4IDE4LjU1ODkgNTYuMTAzOSAyMS44NjA1QzU1LjE5MSAyNS4xNjIgNTEuNjk5NyAyNy4xMTg2IDQ4LjMwNTkgMjYuMjMwNUM0Ny4wNjMxIDI1LjkwNTMgNDYuMDA1OCAyNS4yNDM4IDQ1LjIwOTUgMjQuMzczOEwzOS40ODE0IDI3LjQwMTVDMzkuNzM4MyAyOC4yMjM3IDM5Ljg3NjUgMjkuMDk2MiAzOS44NzY1IDMwLjAwMDFDMzkuODc2NSAzMC45NjM3IDM5LjcxOTQgMzEuODkxNyAzOS40Mjg4IDMyLjc2MTFMNDUuMDcxMSAzNi4xNDYyQzQ1Ljg3NjcgMzUuMTkzOSA0Ni45ODE5IDM0LjQ2NTggNDguMjk3NCAzNC4xMTQ2QzUxLjY4NjUgMzMuMjA5NyA1NS4xODggMzUuMTQ4OSA1Ni4xMTgyIDM4LjQ0NTlDNTcuMDQ4MyA0MS43NDI5IDU1LjA1NDkgNDUuMTQ5MiA1MS42NjU3IDQ2LjA1NEM0OC4yNzY2IDQ2Ljk1ODkgNDQuNzc1MSA0NS4wMTk3IDQzLjg0NSA0MS43MjI3QzQzLjU3MTggNDAuNzU0NSA0My41NTA4IDM5Ljc3NjggNDMuNzQzMiAzOC44NTU4TDM3Ljk5ODggMzUuNDA5NUMzNi42MTc4IDM3LjE2ODcgMzQuNTc5MyAzOC40MTM0IDMyLjI0MDIgMzguNzk2NlY0My42MTlDMzIuMjQwMiA0My42Nzk0IDMyLjIzNjUgNDMuNzM5IDMyLjIyOTMgNDMuNzk3NUMzNS4wMDgzIDQ0LjQ2MTUgMzcuMDY5NyA0Ni45MDEzIDM3LjA2OTcgNDkuODA5NUMzNy4wNjk3IDUzLjIyODQgMzQuMjIwNyA1NiAzMC43MDYyIDU2QzI3LjE5MTcgNTYgMjQuMzQyNyA1My4yMjg0IDI0LjM0MjcgNDkuODA5NUMyNC4zNDI3IDQ2LjkwMTMgMjYuNDA0MiA0NC40NjE1IDI5LjE4MzIgNDMuNzk3NUMyOS4xNzYgNDMuNzM5IDI5LjE3MjMgNDMuNjc5NCAyOS4xNzIzIDQzLjYxOVYzOC43OTY2QzI0LjgzODEgMzguMDg2NCAyMS41MzYzIDM0LjQxODQgMjEuNTM2MyAzMC4wMDAxQzIxLjUzNjMgMjUuNTgxOCAyNC44MzgxIDIxLjkxMzcgMjkuMTcyMyAyMS4yMDM2VjE2LjM4MUMyOS4xNzIzIDE2LjMyMDYgMjkuMTc2IDE2LjI2MSAyOS4xODMyIDE2LjIwMjVDMjYuNDA0MiAxNS41Mzg1IDI0LjM0MjcgMTMuMDk4NyAyNC4zNDI3IDEwLjE5MDVDMjQuMzQyNyA2Ljc3MTU3IDI3LjE5MTcgNCAzMC43MDYyIDRDMzQuMjIwNyA0IDM3LjA2OTcgNi43NzE1NyAzNy4wNjk3IDEwLjE5MDVaTTM2LjgwODcgMzAuMDAwMUMzNi44MDg3IDMzLjI3NDQgMzQuMDgzNyAzNS45Mjk1IDMwLjcxOTUgMzUuOTM2NEwzMC43MDYyIDM1LjkzNjRMMzAuNjkzIDM1LjkzNjRDMjcuMzI5IDM1LjkyOTQgMjQuNjA0MSAzMy4yNzQzIDI0LjYwNDEgMzAuMDAwMUMyNC42MDQxIDI2LjcyMTUgMjcuMzM2MiAyNC4wNjM3IDMwLjcwNjQgMjQuMDYzN0MzNC4wNzY2IDI0LjA2MzcgMzYuODA4NyAyNi43MjE1IDM2LjgwODcgMzAuMDAwMVpNMzQuMDAxOSA0OS44MDk1QzM0LjAwMTkgNTEuNTgwMiAzMi41MjY0IDUzLjAxNTYgMzAuNzA2MiA1My4wMTU2QzI4Ljg4NjEgNTMuMDE1NiAyNy40MTA1IDUxLjU4MDIgMjcuNDEwNSA0OS44MDk1QzI3LjQxMDUgNDguMDM4OSAyOC44ODYxIDQ2LjYwMzUgMzAuNzA2MiA0Ni42MDM1QzMyLjUyNjQgNDYuNjAzNSAzNC4wMDE5IDQ4LjAzODkgMzQuMDAxOSA0OS44MDk1Wk01My4xNDE0IDIxLjA4NTNDNTMuNjE0MSAxOS4zNzU0IDUyLjU3MjUgMTcuNjE2NCA1MC44MTQ5IDE3LjE1NjVDNDkuMDU3MiAxNi42OTY2IDQ3LjI0OSAxNy43MDk5IDQ2Ljc3NjIgMTkuNDE5N0M0Ni4zMDM1IDIxLjEyOTYgNDcuMzQ1MSAyMi44ODg2IDQ5LjEwMjcgMjMuMzQ4NUM1MC44NjA0IDIzLjgwODUgNTIuNjY4NiAyMi43OTUyIDUzLjE0MTQgMjEuMDg1M1pNNTMuMTU5NyAzOS4yMzU4QzUzLjY0MTQgNDAuOTQzMyA1Mi42MDkxIDQyLjcwNzQgNTAuODUzOCA0My4xNzYxQzQ5LjA5ODYgNDMuNjQ0NyA0Ny4yODUxIDQyLjY0MDQgNDYuODAzNCA0MC45MzI4QzQ2LjMyMTcgMzkuMjI1MyA0Ny4zNTQxIDM3LjQ2MTIgNDkuMTA5MyAzNi45OTI2QzUwLjg2NDYgMzYuNTIzOSA1Mi42NzggMzcuNTI4MyA1My4xNTk3IDM5LjIzNThaTTE4Ljg0NjYgMTcuNDMwNUMxMi40NTY4IDE3LjQzMDUgNy4wODY2MiAyMi44OTE3IDcuMDg2NjMgMjkuODY1NUM3LjA4NjYzIDM2LjgzOTIgMTIuNDU2OCA0Mi4zMDA1IDE4Ljg0NjYgNDIuMzAwNVY0NS4yODQ5QzEwLjU1MjQgNDUuMjg0OSA0LjAxODggMzguMjc1NCA0LjAxODggMjkuODY1NUM0LjAxODggMjEuNDU1NiAxMC41NTI0IDE0LjQ0NjEgMTguODQ2NiAxNC40NDYxVjE3LjQzMDVaIiBjbGlwLXJ1bGU9ImV2ZW5vZGQiIGZpbGwtcnVsZT0iZXZlbm9kZCIvPiYjeGE7PGRlZnM+JiN4YTs8bGluZWFyR3JhZGllbnQgZ3JhZGllbnRVbml0cz0idXNlclNwYWNlT25Vc2UiIHkyPSI1MC4zNjY2IiB4Mj0iMzguNDQ0OCIgeTE9IjI4LjgyNTciIHgxPSIyLjExNyIgaWQ9InBhaW50MF9saW5lYXJfNzQzXzI2NTYiPiYjeGE7PHN0b3Agc3RvcC1jb2xvcj0iIzAwRUREMSIvPiYjeGE7PHN0b3Agc3RvcC1jb2xvcj0iIzQ1QzdGRiIgb2Zmc2V0PSIwLjg0NjM1NCIvPiYjeGE7PC9saW5lYXJHcmFkaWVudD4mI3hhOzwvZGVmcz4mI3hhOzwvc3ZnPg==;" vertex="1" parent="1">
          <mxGeometry x="376" y="-490" width="60" height="60" as="geometry" />
        </mxCell>
        <mxCell id="anAZUJU6mTMkVZteGUWq-5" value="Postgres Sink &#xa;Connector" style="shape=image;verticalLabelPosition=bottom;verticalAlign=top;imageAspect=0;aspect=fixed;image=data:image/svg+xml,PHN2ZyB4bWxucz0iaHR0cDovL3d3dy53My5vcmcvMjAwMC9zdmciIGZpbGw9Im5vbmUiIHZpZXdCb3g9IjAgMCA0OCA0OCIgaGVpZ2h0PSI0OCIgd2lkdGg9IjQ4Ij4mI3hhOzxwYXRoIGZpbGw9IiMwNDA1MzEiIGQ9Ik0yMy4yNzczIDQxLjI4NjFDMjMuMDA0MyA0MS43Mjk4IDIyLjUyMDcgNDIgMjEuOTk5OCA0MkgxMS40OTk4QzEwLjk3NyA0MiAxMC40OTIgNDEuNzI3OCAxMC4yMTk2IDQxLjI4MTdMMC43MTk1NjggMjUuNzIyOUMwLjQyODI4OSAyNS4yNDU4IDAuNDI2NDE0IDI0LjY0NjQgMC43MTQ2OTkgMjQuMTY3NUwxMS4yMTQ3IDYuNzI2MzVDMTEuNDg2IDYuMjc1NjIgMTEuOTczNyA2IDEyLjQ5OTggNkgyMC40OTk4QzIxLjMyODIgNiAyMS45OTk4IDYuNjcxNTcgMjEuOTk5OCA3LjVDMjEuOTk5OCA4LjMyODQzIDIxLjMyODIgOSAyMC40OTk4IDlIMTMuMzQ3NkwzLjc1Mzk1IDI0LjkzNTdMMTIuMzQxNCAzOUgyMS4xNjE2TDI0LjcyMjMgMzMuMjEzOUMyNS4xNTY1IDMyLjUwODMgMjYuMDgwNCAzMi4yODgzIDI2Ljc4NTkgMzIuNzIyNUMyNy40OTE1IDMzLjE1NjcgMjcuNzExNSAzNC4wODA2IDI3LjI3NzMgMzQuNzg2MUwyMy4yNzczIDQxLjI4NjFaIiBjbGlwLXJ1bGU9ImV2ZW5vZGQiIGZpbGwtcnVsZT0iZXZlbm9kZCIvPiYjeGE7PHBhdGggZmlsbD0iIzA0MDUzMSIgZD0iTTI0LjcyMjcgNi43MTM4NUMyNC45OTU3IDYuMjcwMjMgMjUuNDc5MyA2IDI2LjAwMDIgNkgzNi41MDAyQzM3LjAyMyA2IDM3LjUwOCA2LjI3MjE1IDM3Ljc4MDQgNi43MTgzMUw0Ny4yODA0IDIyLjI3NzFDNDcuNTcxNyAyMi43NTQyIDQ3LjU3MzYgMjMuMzUzNiA0Ny4yODUzIDIzLjgzMjVMMzYuNzg1MyA0MS4yNzM3QzM2LjUxNCA0MS43MjQ0IDM2LjAyNjMgNDIgMzUuNTAwMiA0MkgyNy41MDAyQzI2LjY3MTggNDIgMjYuMDAwMiA0MS4zMjg0IDI2LjAwMDIgNDAuNUMyNi4wMDAyIDM5LjY3MTYgMjYuNjcxOCAzOSAyNy41MDAyIDM5SDM0LjY1MjRMNDQuMjQ2MSAyMy4wNjQzTDM1LjY1ODYgOUgyNi44Mzg0TDIzLjI3NzcgMTQuNzg2MUMyMi44NDM1IDE1LjQ5MTcgMjEuOTE5NiAxNS43MTE3IDIxLjIxNDEgMTUuMjc3NUMyMC41MDg1IDE0Ljg0MzMgMjAuMjg4NSAxMy45MTk0IDIwLjcyMjcgMTMuMjEzOUwyNC43MjI3IDYuNzEzODVaIiBjbGlwLXJ1bGU9ImV2ZW5vZGQiIGZpbGwtcnVsZT0iZXZlbm9kZCIvPiYjeGE7PHJlY3QgZmlsbD0idXJsKCNwYWludDBfbGluZWFyKSIgdHJhbnNmb3JtPSJyb3RhdGUoOTAgMjggMjApIiBoZWlnaHQ9IjgiIHdpZHRoPSI4IiB5PSIyMCIgeD0iMjgiLz4mI3hhOzxkZWZzPiYjeGE7PGxpbmVhckdyYWRpZW50IGdyYWRpZW50VW5pdHM9InVzZXJTcGFjZU9uVXNlIiB5Mj0iMjgiIHgyPSIzMiIgeTE9IjIwIiB4MT0iMzIiIGlkPSJwYWludDBfbGluZWFyIj4mI3hhOzxzdG9wIHN0b3AtY29sb3I9IiMzOENDRUQiLz4mI3hhOzxzdG9wIHN0b3Atb3BhY2l0eT0iMC40IiBzdG9wLWNvbG9yPSIjMzhDQ0VEIiBvZmZzZXQ9IjEiLz4mI3hhOzwvbGluZWFyR3JhZGllbnQ+JiN4YTs8L2RlZnM+JiN4YTs8L3N2Zz4=;" vertex="1" parent="1">
          <mxGeometry x="520" y="-482" width="44" height="44" as="geometry" />
        </mxCell>
        <mxCell id="anAZUJU6mTMkVZteGUWq-7" style="edgeStyle=orthogonalEdgeStyle;rounded=0;orthogonalLoop=1;jettySize=auto;html=1;entryX=0;entryY=0.5;entryDx=0;entryDy=0;" edge="1" parent="1" source="anAZUJU6mTMkVZteGUWq-6" target="anAZUJU6mTMkVZteGUWq-2">
          <mxGeometry relative="1" as="geometry">
            <Array as="points">
              <mxPoint x="180" y="-321" />
              <mxPoint x="180" y="-460" />
            </Array>
          </mxGeometry>
        </mxCell>
        <mxCell id="anAZUJU6mTMkVZteGUWq-6" value="Source Postgres&lt;div&gt;Instance&lt;/div&gt;" style="sketch=0;points=[[0,0,0],[0.25,0,0],[0.5,0,0],[0.75,0,0],[1,0,0],[0,1,0],[0.25,1,0],[0.5,1,0],[0.75,1,0],[1,1,0],[0,0.25,0],[0,0.5,0],[0,0.75,0],[1,0.25,0],[1,0.5,0],[1,0.75,0]];outlineConnect=0;fontColor=#232F3E;fillColor=#C925D1;strokeColor=#ffffff;dashed=0;verticalLabelPosition=bottom;verticalAlign=top;align=center;html=1;fontSize=12;fontStyle=0;aspect=fixed;shape=mxgraph.aws4.resourceIcon;resIcon=mxgraph.aws4.rds;" vertex="1" parent="1">
          <mxGeometry x="60" y="-360" width="78" height="78" as="geometry" />
        </mxCell>
        <mxCell id="anAZUJU6mTMkVZteGUWq-8" value="Target Postgres&lt;div&gt;Instance&lt;/div&gt;" style="sketch=0;points=[[0,0,0],[0.25,0,0],[0.5,0,0],[0.75,0,0],[1,0,0],[0,1,0],[0.25,1,0],[0.5,1,0],[0.75,1,0],[1,1,0],[0,0.25,0],[0,0.5,0],[0,0.75,0],[1,0.25,0],[1,0.5,0],[1,0.75,0]];outlineConnect=0;fontColor=#232F3E;fillColor=#C925D1;strokeColor=#ffffff;dashed=0;verticalLabelPosition=bottom;verticalAlign=top;align=center;html=1;fontSize=12;fontStyle=0;aspect=fixed;shape=mxgraph.aws4.resourceIcon;resIcon=mxgraph.aws4.rds;" vertex="1" parent="1">
          <mxGeometry x="660" y="-360" width="78" height="78" as="geometry" />
        </mxCell>
        <mxCell id="anAZUJU6mTMkVZteGUWq-9" style="edgeStyle=orthogonalEdgeStyle;rounded=0;orthogonalLoop=1;jettySize=auto;html=1;exitX=1;exitY=0.5;exitDx=0;exitDy=0;entryX=0;entryY=0.5;entryDx=0;entryDy=0;entryPerimeter=0;" edge="1" parent="1" source="anAZUJU6mTMkVZteGUWq-5" target="anAZUJU6mTMkVZteGUWq-8">
          <mxGeometry relative="1" as="geometry" />
        </mxCell>
        <mxCell id="anAZUJU6mTMkVZteGUWq-12" value="Confluent Cloud" style="text;html=1;align=center;verticalAlign=middle;resizable=0;points=[];autosize=1;strokeColor=none;fillColor=none;fontSize=17;" vertex="1" parent="1">
          <mxGeometry x="324.5" y="-540" width="150" height="30" as="geometry" />
        </mxCell>
        <mxCell id="anAZUJU6mTMkVZteGUWq-13" value="" style="rounded=1;whiteSpace=wrap;html=1;dashed=1;dashPattern=8 8;strokeColor=light-dark(#FF0080,#EDEDED);fillColor=#FFFFFF;" vertex="1" parent="1">
          <mxGeometry x="310" y="-280" width="180" height="130" as="geometry" />
        </mxCell>
        <mxCell id="anAZUJU6mTMkVZteGUWq-14" value="External System" style="text;html=1;align=center;verticalAlign=middle;resizable=0;points=[];autosize=1;strokeColor=none;fillColor=none;fontSize=15;" vertex="1" parent="1">
          <mxGeometry x="335" y="-280" width="130" height="30" as="geometry" />
        </mxCell>
        <mxCell id="anAZUJU6mTMkVZteGUWq-16" value="Web Application" style="shape=image;verticalLabelPosition=bottom;verticalAlign=top;imageAspect=0;aspect=fixed;image=data:image/svg+xml,PHN2ZyB4bWxucz0iaHR0cDovL3d3dy53My5vcmcvMjAwMC9zdmciIGZpbGw9Im5vbmUiIHZpZXdCb3g9IjAgMCA0OCA0OCIgaGVpZ2h0PSI0OCIgd2lkdGg9IjQ4Ij4mI3hhOzxyZWN0IGZpbGw9InVybCgjcGFpbnQwX2xpbmVhcikiIGhlaWdodD0iNCIgd2lkdGg9IjI4IiB5PSIxOSIvPiYjeGE7PHBhdGggZmlsbD0iIzA0MDUzMSIgZD0iTTIxLjQyNzIgOS4wMDgwOUMyMy43NDgyIDYuODMzMjEgMjYuODkyIDUuNSAzMC4zNDYyIDUuNUMzNy40NTQ3IDUuNSA0My4yNjkyIDExLjE1NTQgNDMuMjY5MiAxOC4xOTUxQzQzLjI2OTIgMTkuMDgwOSA0My4xNzY2IDE5Ljk0NjggNDMuMDAwMiAyMC43ODMzQzQ1Ljc0MjcgMjMuMDMwMSA0Ny41IDI2LjQxOSA0Ny41IDMwLjIxOTVDNDcuNSAzNC40MDAyIDQ1LjM3MzYgMzguMDgyNyA0Mi4xNDg1IDQwLjI5NDlDNDEuNDY1MyA0MC43NjM1IDQwLjUzMTYgNDAuNTg5NSA0MC4wNjMgMzkuOTA2NEMzOS41OTQ0IDM5LjIyMzIgMzkuNzY4NCAzOC4yODk1IDQwLjQ1MTYgMzcuODIwOUM0Mi45MDk4IDM2LjEzNDggNDQuNSAzMy4zNTM1IDQ0LjUgMzAuMjE5NUM0NC41IDI3LjA4NTYgNDIuOTA5OCAyNC4zMDQzIDQwLjQ1MTYgMjIuNjE4MUwzOS41NDY2IDIxLjk5NzRMMzkuODY0MiAyMC45NDdDNDAuMTI3NSAyMC4wNzYzIDQwLjI2OTIgMTkuMTUzMSA0MC4yNjkyIDE4LjE5NTFDNDAuMjY5MiAxMi44NjkgMzUuODU1MiA4LjUgMzAuMzQ2MiA4LjVDMjcuNDE4OCA4LjUgMjQuNzk0OCA5LjczNjIgMjIuOTgwNCAxMS42OTg2TDIyLjMzOTUgMTIuMzkxN0wyMS40MzczIDEyLjExMzdDMjAuNTcyMyAxMS44NDcyIDE5LjY0OTcgMTEuNzAyOCAxOC42ODk3IDExLjcwMjhDMTMuNjIzOCAxMS43MDI4IDkuNTY4OTcgMTUuNzE5NyA5LjU2ODk3IDIwLjYxMTVDOS41Njg5NyAyMC45ODUzIDkuNTkyNDUgMjEuMzUzMSA5LjYzNzkxIDIxLjcxMzZMOS43ODAyNCAyMi44NDIzTDguNzMxNyAyMy4yODM3QzUuNjM4NSAyNC41ODU5IDMuNSAyNy41ODQ3IDMuNSAzMS4wNDg4QzMuNSAzNS42ODc5IDcuMzQ1ODEgMzkuNSAxMi4xNTM4IDM5LjVDMTIuOTgyMyAzOS41IDEzLjY1MzggNDAuMTcxNiAxMy42NTM4IDQxQzEzLjY1MzggNDEuODI4NCAxMi45ODIzIDQyLjUgMTIuMTUzOCA0Mi41QzUuNzQ2MjUgNDIuNSAwLjUgMzcuNDAxNSAwLjUgMzEuMDQ4OEMwLjUgMjYuNjk2NyAyLjk2NzE4IDIyLjkyOTcgNi41NzUwOCAyMC45OTI4QzYuNTcxMDEgMjAuODY2MiA2LjU2ODk3IDIwLjczOTEgNi41Njg5NyAyMC42MTE1QzYuNTY4OTcgMTQuMDA2MSAxMi4wMjQyIDguNzAyNzYgMTguNjg5NyA4LjcwMjc2QzE5LjYyOTYgOC43MDI3NiAyMC41NDYyIDguODA4MTYgMjEuNDI3MiA5LjAwODA5WiIgY2xpcC1ydWxlPSJldmVub2RkIiBmaWxsLXJ1bGU9ImV2ZW5vZGQiLz4mI3hhOzxwYXRoIGZpbGw9IiMwNDA1MzEiIGQ9Ik0yNyAyOS41QzI3LjgyODQgMjkuNSAyOC41IDMwLjE3MTYgMjguNSAzMVY0MUMyOC41IDQxLjgyODQgMjcuODI4NCA0Mi41IDI3IDQyLjVDMjYuMTcxNiA0Mi41IDI1LjUgNDEuODI4NCAyNS41IDQxVjMxQzI1LjUgMzAuMTcxNiAyNi4xNzE2IDI5LjUgMjcgMjkuNVoiIGNsaXAtcnVsZT0iZXZlbm9kZCIgZmlsbC1ydWxlPSJldmVub2RkIi8+JiN4YTs8cGF0aCBmaWxsPSIjMDQwNTMxIiBkPSJNMjAgMzQuNUMyMC44Mjg0IDM0LjUgMjEuNSAzNS4xNzE2IDIxLjUgMzZMMjEuNSA0MUMyMS41IDQxLjgyODQgMjAuODI4NCA0Mi41IDIwIDQyLjVDMTkuMTcxNiA0Mi41IDE4LjUgNDEuODI4NCAxOC41IDQxTDE4LjUgMzZDMTguNSAzNS4xNzE2IDE5LjE3MTYgMzQuNSAyMCAzNC41WiIgY2xpcC1ydWxlPSJldmVub2RkIiBmaWxsLXJ1bGU9ImV2ZW5vZGQiLz4mI3hhOzxwYXRoIGZpbGw9IiMwNDA1MzEiIGQ9Ik0zNCAzMS41QzM0LjgyODQgMzEuNSAzNS41IDMyLjE3MTYgMzUuNSAzM0wzNS41IDQxQzM1LjUgNDEuODI4NCAzNC44Mjg0IDQyLjUgMzQgNDIuNUMzMy4xNzE2IDQyLjUgMzIuNSA0MS44Mjg0IDMyLjUgNDFMMzIuNSAzM0MzMi41IDMyLjE3MTYgMzMuMTcxNiAzMS41IDM0IDMxLjVaIiBjbGlwLXJ1bGU9ImV2ZW5vZGQiIGZpbGwtcnVsZT0iZXZlbm9kZCIvPiYjeGE7PGRlZnM+JiN4YTs8bGluZWFyR3JhZGllbnQgZ3JhZGllbnRVbml0cz0idXNlclNwYWNlT25Vc2UiIHkyPSIxOSIgeDI9IjAiIHkxPSIxOSIgeDE9IjI4IiBpZD0icGFpbnQwX2xpbmVhciI+JiN4YTs8c3RvcCBzdG9wLWNvbG9yPSIjMzhDQ0VEIi8+JiN4YTs8c3RvcCBzdG9wLW9wYWNpdHk9IjAuNCIgc3RvcC1jb2xvcj0iIzM4Q0NFRCIgb2Zmc2V0PSIxIi8+JiN4YTs8L2xpbmVhckdyYWRpZW50PiYjeGE7PC9kZWZzPiYjeGE7PC9zdmc+;" vertex="1" parent="1">
          <mxGeometry x="376" y="-238" width="48" height="48" as="geometry" />
        </mxCell>
        <mxCell id="anAZUJU6mTMkVZteGUWq-17" style="edgeStyle=orthogonalEdgeStyle;rounded=0;orthogonalLoop=1;jettySize=auto;html=1;entryX=1;entryY=0.75;entryDx=0;entryDy=0;entryPerimeter=0;" edge="1" parent="1" source="anAZUJU6mTMkVZteGUWq-16" target="anAZUJU6mTMkVZteGUWq-6">
          <mxGeometry relative="1" as="geometry">
            <Array as="points">
              <mxPoint x="180" y="-214" />
              <mxPoint x="180" y="-301" />
            </Array>
          </mxGeometry>
        </mxCell>
        <mxCell id="anAZUJU6mTMkVZteGUWq-18" style="edgeStyle=orthogonalEdgeStyle;rounded=0;orthogonalLoop=1;jettySize=auto;html=1;entryX=0;entryY=0.75;entryDx=0;entryDy=0;entryPerimeter=0;exitX=1;exitY=0.5;exitDx=0;exitDy=0;" edge="1" parent="1" source="anAZUJU6mTMkVZteGUWq-16">
          <mxGeometry relative="1" as="geometry">
            <mxPoint x="425" y="-186" as="sourcePoint" />
            <mxPoint x="661" y="-301.5" as="targetPoint" />
            <Array as="points">
              <mxPoint x="611" y="-214" />
              <mxPoint x="611" y="-301" />
            </Array>
          </mxGeometry>
        </mxCell>
        <mxCell id="anAZUJU6mTMkVZteGUWq-20" style="edgeStyle=orthogonalEdgeStyle;rounded=0;orthogonalLoop=1;jettySize=auto;html=1;" edge="1" parent="1" source="anAZUJU6mTMkVZteGUWq-19" target="anAZUJU6mTMkVZteGUWq-13">
          <mxGeometry relative="1" as="geometry" />
        </mxCell>
        <mxCell id="anAZUJU6mTMkVZteGUWq-19" value="" style="shape=image;verticalLabelPosition=bottom;verticalAlign=top;imageAspect=0;aspect=fixed;image=data:image/svg+xml,PHN2ZyB4bWxucz0iaHR0cDovL3d3dy53My5vcmcvMjAwMC9zdmciIGZpbGw9Im5vbmUiIHZpZXdCb3g9IjAgMCA0OCA0OCIgaGVpZ2h0PSI0OCIgd2lkdGg9IjQ4Ij4mI3hhOzxyZWN0IGZpbGw9InVybCgjcGFpbnQwX2xpbmVhcikiIGhlaWdodD0iNCIgd2lkdGg9IjI4IiB5PSIzMiIvPiYjeGE7PHBhdGggZmlsbD0iIzA0MDUzMSIgZD0iTTYuMjIyNSA0Mkw0MS43Nzc0IDQyQzQwLjQwNDUgMzIuODMzNSAzMi44Njg5IDI2IDI0IDI2QzE1LjEzMTEgMjYgNy41OTU0MyAzMi44MzM1IDYuMjIyNSA0MlpNMy4wODU0NiA0My4wMDEyQzQuMDQ5NDQgMzEuNzg3NiAxMy4wNDUxIDIzIDI0IDIzQzM0Ljk1NDggMjMgNDMuOTUwNSAzMS43ODc2IDQ0LjkxNDUgNDMuMDAxMkM0NS4wMDkxIDQ0LjEwMTcgNDQuMTA0NSA0NSA0MyA0NUw0Ljk5OTk2IDQ1QzMuODk1MzkgNDUgMi45OTA4NiA0NC4xMDE3IDMuMDg1NDYgNDMuMDAxMloiIGNsaXAtcnVsZT0iZXZlbm9kZCIgZmlsbC1ydWxlPSJldmVub2RkIi8+JiN4YTs8cGF0aCBmaWxsPSIjMDQwNTMxIiBkPSJNMjQgMjBDMjcuODY2IDIwIDMxIDE2Ljg2NiAzMSAxM0MzMSA5LjEzNDAxIDI3Ljg2NiA2IDI0IDZDMjAuMTM0IDYgMTcgOS4xMzQwMSAxNyAxM0MxNyAxNi44NjYgMjAuMTM0IDIwIDI0IDIwWk0yNCAyM0MyOS41MjI4IDIzIDM0IDE4LjUyMjggMzQgMTNDMzQgNy40NzcxNSAyOS41MjI4IDMgMjQgM0MxOC40NzcyIDMgMTQgNy40NzcxNSAxNCAxM0MxNCAxOC41MjI4IDE4LjQ3NzIgMjMgMjQgMjNaIiBjbGlwLXJ1bGU9ImV2ZW5vZGQiIGZpbGwtcnVsZT0iZXZlbm9kZCIvPiYjeGE7PGRlZnM+JiN4YTs8bGluZWFyR3JhZGllbnQgZ3JhZGllbnRVbml0cz0idXNlclNwYWNlT25Vc2UiIHkyPSIzMiIgeDI9IjAiIHkxPSIzMiIgeDE9IjI4IiBpZD0icGFpbnQwX2xpbmVhciI+JiN4YTs8c3RvcCBzdG9wLWNvbG9yPSIjMzhDQ0VEIi8+JiN4YTs8c3RvcCBzdG9wLW9wYWNpdHk9IjAuNCIgc3RvcC1jb2xvcj0iIzM4Q0NFRCIgb2Zmc2V0PSIxIi8+JiN4YTs8L2xpbmVhckdyYWRpZW50PiYjeGE7PC9kZWZzPiYjeGE7PC9zdmc+;" vertex="1" parent="1">
          <mxGeometry x="376" y="-90" width="48" height="48" as="geometry" />
        </mxCell>
      </root>
    </mxGraphModel>
  </diagram>
</mxfile>
